<?xml version="1.0" standalone="no"?>
<!DOCTYPE svg PUBLIC "-//W3C//DTD SVG 1.1//EN" "http://www.w3.org/Graphics/SVG/1.1/DTD/svg11.dtd" >
<!--
2013-9-30: Created.
-->
<svg>
<metadata>
Created by iconfont
</metadata>
<defs>

<font id="iconfont" horiz-adv-x="1024" >
  <font-face
    font-family="iconfont"
    font-weight="500"
    font-stretch="normal"
    units-per-em="1024"
    ascent="896"
    descent="-128"
  />
    <missing-glyph />
    
    <glyph glyph-name="tengxunweibo" unicode="&#58882;" d="M517.12 890.88q92.16 0 172.544-34.816t140.288-94.72 94.72-140.288 34.816-171.52q0-92.16-34.816-172.544t-94.72-140.288-140.288-94.72-172.544-34.816l-13.312 0q-6.144 0-12.288 1.024l-4.096 0q-15.36 2.048-26.112 13.824t-10.752 28.16q0 17.408 12.288 29.696t29.696 12.288q4.096 0 12.288-2.048l1.024 1.024 11.264 0q73.728 0 139.264 28.16t114.176 76.8 76.8 114.176 28.16 139.264-28.16 139.264-76.8 113.664-114.176 76.288-139.264 28.16-139.264-28.16-113.664-76.288-76.288-113.664-28.16-139.264q0-75.776 29.696-143.36 6.144-9.216 6.144-22.528 0-17.408-12.288-29.696t-29.696-12.288q-11.264 0-19.968 4.608t-14.848 12.8q-20.48 43.008-31.744 90.624t-11.264 99.84q0 91.136 34.816 171.52t94.72 140.288 140.288 94.72 171.52 34.816zM721.92 449.536q0-41.984-15.872-79.36t-43.52-65.024-65.024-44.032-80.384-16.384q-34.816 0-66.048 10.752t-56.832 31.232q-11.264-13.312-28.672-33.28t-36.864-44.544-39.936-51.712-37.888-53.76q-25.6-38.912-47.616-79.36t-38.4-74.24q-19.456-39.936-35.84-77.824l-105.472 4.096q15.36 44.032 37.888 92.16 19.456 40.96 47.616 91.136t67.072 100.352q21.504 27.648 45.056 55.296t46.08 52.224 41.984 44.544 32.768 33.28q-28.672 48.128-28.672 104.448 0 41.984 15.872 79.36t43.52 65.024 65.024 43.52 79.36 15.872q43.008 0 80.384-15.872t65.024-43.52 43.52-65.024 15.872-79.36z"  horiz-adv-x="1024" />

    
    <glyph glyph-name="qinggan" unicode="&#58880;" d="M542.72 743.424q45.056 62.464 100.352 92.16t112.128 30.72 110.592-23.04 95.232-68.608 67.072-106.496 25.6-136.704q0-77.824-29.184-145.408t-74.24-125.952-99.328-108.544-104.448-91.136q-34.816-28.672-61.952-50.176t-47.616-38.912-36.352-30.72-29.184-24.576q-8.192 6.144-14.336 19.456-5.12 11.264-9.728 32.768t-4.608 55.296q0 44.032 4.608 70.144t9.728 40.448q6.144 16.384 14.336 21.504 13.312 11.264 30.72 25.088t44.032 35.328q27.648 22.528 56.832 49.664t53.76 58.88 40.448 68.608 15.872 79.872q0 49.152-20.48 88.576t-51.712 62.976-69.632 28.672-75.264-12.288q-7.168-17.408-21.504-29.184t-32.768-15.872q-3.072-5.12-6.656-9.728t-7.68-10.752q-8.192 13.312-14.336 20.48-19.456 4.096-33.792 15.872t-21.504 29.184q-36.864 17.408-74.752 12.288t-69.632-29.184-51.712-63.488-19.968-89.6q0-41.984 15.872-78.848t40.448-68.096 54.272-58.368 56.32-49.664q25.6-21.504 43.008-35.84t30.72-25.6q8.192-5.12 14.336-21.504 5.12-14.336 10.24-39.936t5.12-69.632q0-32.768-5.12-53.76t-10.24-33.28q-6.144-14.336-14.336-21.504-13.312 11.264-29.184 24.576t-36.352 30.208-47.104 38.912-61.44 51.712q-49.152 41.984-103.936 91.648t-99.84 107.52-74.752 124.928-29.696 144.896q0 74.752 25.6 137.216t67.072 107.008 95.744 69.12 111.104 23.552 112.128-30.72 100.352-92.16q10.24 2.048 15.36 2.048t15.36-2.048z"  horiz-adv-x="1054" />

    
    <glyph glyph-name="gerenzhongxindingdandaifukuan" unicode="&#58889;" d="M329.476594 523.4916129999999c-5.955334 0-11.910668 2.271137-16.454989 6.815458-9.087618 9.087618-9.088642 23.823383 0 32.911002L592.031455 842.24021c9.087618 9.088642 23.823383 9.088642 32.911002 0.001024l229.808716-229.786189c4.366153-4.364105 6.817506-10.284624 6.817506-16.457037 0-6.172413-2.453401-12.092932-6.81853-16.456013l-49.248236-49.235948c-9.087618-9.086594-23.823383-9.086594-32.911002 0.003072s-9.08557 23.824407 0.004096 32.911002l32.788127 32.779935L608.489515 792.874219 345.932607 530.307071C341.38931 525.76275 335.432952 523.4916129999999 329.476594 523.4916129999999zM232.527322 523.487518c-3.971929 0-7.998128 1.017813-11.679253 3.158907-11.109933 6.462193-14.877071 20.707482-8.414879 31.817416L374.926973 837.815692c6.432498 11.058736 20.585631 14.850448 31.687373 8.490651l135.903668-77.883193c11.150892-6.390516 15.010186-20.61123 8.61967-31.762122s-20.61123-15.01121-31.763146-8.61967L403.53326 794.4265379999999 252.665484 535.061303C248.344386 527.6324950000001 240.543881 523.487518 232.527322 523.487518zM861.795997-81.56354999999996L163.643687-81.56354999999996c-64.160121 0-116.359401 52.19928-116.359401 116.359401l0 418.880327c0 64.160121 52.19928 116.358377 116.359401 116.358377l698.15231 0c64.160121 0 116.359401-52.198256 116.359401-116.358377l0-418.880327C978.154374-29.36427100000003 925.956118-81.56354999999996 861.795997-81.56354999999996zM163.643687 523.490589c-38.496687 0-69.815436-31.318749-69.815436-69.815436l0-418.880327c0-38.496687 31.318749-69.815436 69.815436-69.815436l698.15231 0c38.496687 0 69.815436 31.318749 69.815436 69.815436l0 418.880327c0 38.496687-31.318749 69.815436-69.815436 69.815436L163.643687 523.490589zM791.980561 151.154228c-51.327892 0-93.086906 41.759014-93.086906 93.086906 0 51.328916 41.759014 93.08793 93.086906 93.08793s93.086906-41.759014 93.086906-93.08793C885.067467 192.91324199999997 843.308453 151.154228 791.980561 151.154228zM791.980561 290.78509899999995c-25.663434 0-46.542941-20.879507-46.542941-46.543965 0-25.663434 20.879507-46.542941 46.542941-46.542941s46.542941 20.879507 46.542941 46.542941C838.523502 269.90559199999996 817.643995 290.78509899999995 791.980561 290.78509899999995z"  horiz-adv-x="1024" />

    
    <glyph glyph-name="pinglun" unicode="&#58888;" d="M64.816215 61.421276M516.582365 304.839215c28.27702 0 51.278897 23.001877 51.278897 51.278897 0 28.268834-23.001877 51.271734-51.278897 51.271734-28.261671 0-51.263547-23.001877-51.263547-51.271734C465.318818 327.841092 488.320695 304.839215 516.582365 304.839215zM287.73733 407.388822c-28.27702 0-51.278897-23.001877-51.278897-51.271734 0-28.27702 23.001877-51.278897 51.278897-51.278897 28.261671 0 51.263547 23.001877 51.263547 51.278897C339.000877 384.386946 315.999001 407.388822 287.73733 407.388822zM745.459123 304.839215c28.261671 0 51.263547 23.001877 51.263547 51.278897 0 28.268834-23.001877 51.271734-51.263547 51.271734-28.27702 0-51.294247-23.001877-51.294247-51.271734C694.163853 327.841092 717.182103 304.839215 745.459123 304.839215zM516.582365-38.428849c249.109568 0 451.7815 176.99411 451.7815 394.546961S765.691933 750.656887 516.582365 750.656887 64.816215 573.670963 64.816215 356.118112c0-119.960139 61.642942-232.04696 169.119769-307.519886l2.521426-1.778506 0-195.068767L429.833629-30.918805l2.180666-0.356111C460.771245-36.023056 489.233484-38.428849 516.582365-38.428849zM420.939051 17.049696l-141.80261-85.248569 1.902326 139.961682c-107.074667 65.579601-170.883949 171.641195-170.883949 284.355303 0 192.555527 182.315302 349.208357 406.426523 349.208357s406.442896-156.652829 406.442896-349.208357S740.694609 6.902592 516.582365 6.902592C485.397109 6.902592 453.222315 10.313272 420.939051 17.049696z"  horiz-adv-x="1024" />

    
    <glyph glyph-name="qq" unicode="&#58881;" d="M933.4461 252.137787c-18.783809 108.945271-97.673553 180.322925-97.673553 180.322925 11.268648 98.920964-30.055526 116.461455-30.055526 116.461455C797.015847 854.972585 533.382495 849.61353 527.847431 849.468221c-5.542226 0.145309-269.211395 5.504364-277.872658-300.5481 0 0-41.325198-17.539468-30.054503-116.461455 0 0-78.894861-71.377654-97.676623-180.322925 0 0-10.033517-184.082552 90.159416-22.543436 0 0 22.544459-61.344137 63.86761-116.455315 0 0-73.897034-25.061792-67.621097-90.164532 0 0-2.517333-72.618924 157.784606-67.62519 0 0 112.701828 8.756431 146.515958 56.350402l14.766308 0 0.26299 0 14.765285 0c33.809013-47.596018 146.513912-56.350402 146.513912-56.350402 160.26203-4.993734 157.781536 67.62519 157.781536 67.62519 6.238075 65.10274-67.620074 90.164532-67.620074 90.164532 41.324174 55.109132 63.86147 116.455315 63.86147 116.455315C943.437661 68.05523500000004 933.4461 252.137787 933.4461 252.137787L933.4461 252.137787z"  horiz-adv-x="1024" />

    
    <glyph glyph-name="sixin" unicode="&#59272;" d="M834.346057 40.164000999999985L189.678502 40.164000999999985c-47.472198 0-85.974094 38.533618-85.974094 85.957721l0 515.746324c0 47.39238 38.501896 85.957721 85.974094 85.957721L834.346057 727.8257659999999c47.40773 0 85.957721-38.566364 85.957721-85.957721l0-85.957721c0-10.216689-7.131421-18.723434-16.597003-20.946055-24.542976-9.849322-245.737774-135.092791-381.037273-212.608236-6.939039-3.965312-15.429411-3.75758-22.240537 0.528026L264.060583 473.278349c-9.993608 6.412037-12.967336 19.698644-6.603395 29.692253 6.395664 10.008958 19.698644 12.983709 29.692253 6.619768L512.579703 366.118747C757.821173 506.615619 844.658937 553.672354 877.324918 569.452759l0 72.415286c0 23.695678-19.314904 42.97886-42.97886 42.97886L189.678502 684.846906c-23.712051 0-42.97886-19.283182-42.97886-42.97886l0-515.746324c0-23.712051 19.266809-42.97886 42.97886-42.97886L834.346057 83.14286100000004c23.663956 0 42.97886 19.266809 42.97886 42.97886l0 257.873162c0 11.864212 9.593496 21.521153 21.473057 21.521153s21.505803-9.657964 21.505803-21.521153l0-257.873162C920.303778 78.69761900000003 881.753787 40.164000999999985 834.346057 40.164000999999985L834.346057 40.164000999999985z"  horiz-adv-x="1024" />

    
    <glyph glyph-name="aixin" unicode="&#58921;" d="M965.40416 553.23392c-19.50976 52.24704-47.744 100.41472-83.92064 143.16288-18.26688 21.58592-50.57408 24.27392-72.15872 6.0096-21.58464-18.26688-24.2752-50.5728-6.00832-72.15872C861.4336 561.5718400000001 893.44 474.11968 893.44 384c0-210.32576-171.11424-381.44-381.44-381.44-210.32704 0-381.44 171.11424-381.44 381.44 0 210.32704 171.11296 381.44 381.44 381.44 60.48896 0 118.30784-13.72672 171.85152-40.8 25.2288-12.75648 56.03328-2.64704 68.7936 22.58816 12.76032 25.23392 2.64576 56.03456-22.58816 68.7936C662.05312 850.4064 588.68992 867.84 512 867.84c-65.29536 0-128.66432-12.8-188.34688-38.04416-57.62176-24.37248-109.36064-59.2512-153.7792-103.66976-44.41856-44.41856-79.29856-96.15744-103.66976-153.77792C40.96 512.6656 28.16 449.29536 28.16 384c0-65.29536 12.8-128.6656 38.04416-188.34688 24.37248-57.62176 59.2512-109.36064 103.66976-153.7792s96.15744-79.29856 153.7792-103.66976C383.33568-87.03999999999996 446.70464-99.84000000000003 512-99.84000000000003c65.29536 0 128.6656 12.8 188.34816 38.04416 57.62176 24.3712 109.36064 59.2512 153.77792 103.66976 44.41856 44.41856 79.29856 96.15744 103.66976 153.7792C983.04 255.33439999999996 995.84 318.70464000000004 995.84 384 995.84 442.20672 985.6 499.14496 965.40416 553.23392zM626.46272 609.27232c-26.17984-3.02848-49.95712-12.2048-71.52128-26.98368-9.14816-6.27072-17.57312-13.66272-25.94176-20.98688-5.3952-4.72192-10.08768-10.24896-15.91552-16.25984-7.13088 7.44704-13.34144 14.44608-20.08576 20.88576-23.20384 22.1568-50.68032 36.61312-82.28864 41.64736-16.3968 2.6112-33.42464 3.64928-49.95456 2.45376-23.06432-1.66912-44.93952-8.85632-65.22752-20.6592-13.01632-7.57248-24.9216-16.30336-35.62752-26.86592-23.68384-23.36384-38.74944-51.4048-45.9648-83.74656-1.60768-7.2064-2.69184-14.52928-4.01536-21.7984 0-9.81376 0-19.62624 0-29.44 1.32352-7.05408 2.46912-14.14656 4.00384-21.15328 5.46176-24.93824 15.91552-47.73248 31.94624-67.4944 18.72768-23.08864 41.45152-42.15424 64.38528-60.9536 15.96288-13.088 31.24352-27.00288 46.97984-40.36992 24.37376-20.70656 48.94592-41.18016 73.30304-61.90464 16.2112-13.79456 32.128-27.93344 48.3008-41.7728 9.7408-8.33408 19.75168-16.352 29.568-24.6016 1.40928-1.184 2.40512-2.85952 3.59296-4.30848 0.85376 0 1.70752 0 2.56 0 16.69504 14.40768 33.30304 28.91776 50.1056 43.19872 24.37248 20.71424 48.95104 41.184 73.31072 61.91104 16.21248 13.79584 32.09344 27.9808 48.3072 41.77664 21.31072 18.13248 43.20896 35.59936 64.10112 54.19904 19.4432 17.30944 37.10848 36.45056 48.75776 60.13056 8.24192 16.75648 14.23616 34.34368 16.192 53.0944 0.06912 0.65536 0.85376 1.2352 1.3056 1.8496 0 14.50624 0 29.01376 0 43.52-2.112 8.36096-4.25216 16.71552-6.33088 25.08544-5.03168 20.24832-14.79936 38.20288-27.10656 54.7968-20.66304 27.86176-48.07296 46.80576-80.59392 57.98912C677.95968 610.98752 652.38272 612.27136 626.46272 609.27232z"  horiz-adv-x="1024" />

    
    <glyph glyph-name="zhifubao" unicode="&#58895;" d="M665.600029 281.6c70.4 128 96 249.6 96 249.6l-12.8 0 0 0L640.000029 531.2 524.800029 531.2 524.800029 620.8l281.6 0L806.400029 659.2 524.800029 659.2 524.800029 793.6l-128 0 0-134.4-256 0 0-38.4 256 0 0-89.6L179.200029 531.2l0-38.4 441.6 0c0-6.4 0-6.4-6.4-12.8C614.400029 435.2 582.400029 371.20000000000005 556.800029 320 230.400029 448 134.400029 371.20000000000005 108.800029 358.4c-217.6-153.6-12.8-345.6 19.2-339.2 230.4-51.2 377.6 44.8 480 166.4 6.4-6.4 12.8-6.4 19.2-6.4 70.4-38.4 409.6-198.4 409.6-198.4s0 140.8 0 192C985.600029 172.79999999999995 800.000029 236.79999999999995 665.600029 281.6zM499.200029 224c-160-204.8-352-140.8-384-128C38.400029 115.20000000000005 12.800029 256 108.800029 300.79999999999995c160 51.2 300.8-6.4 403.2-57.6C505.600029 230.39999999999998 499.200029 224 499.200029 224z"  horiz-adv-x="1037" />

    
    <glyph glyph-name="Community" unicode="&#58937;" d="M938.666667 99.58399999999995L471.950222 99.58399999999995 199.082667-127.74400000000003 220.046222 99.58399999999995 85.333333 99.58399999999995C53.902222 99.58399999999995 28.444444 125.04177800000002 28.444444 156.44444399999998L28.444444 839.139556C28.444444 870.542222 53.902222 896.028444 85.333333 896.028444L938.666667 896.028444C970.069333 896.028444 995.555556 870.542222 995.555556 839.139556L995.555556 156.44444399999998C995.555556 125.04177800000002 970.069333 99.58399999999995 938.666667 99.58399999999995ZM938.666667 839.139556L85.333333 839.139556 85.333333 156.44444399999998 280.405333 156.44444399999998 255.488-14.364444000000049 454.684444 156.44444399999998 938.666667 156.44444399999998 938.666667 839.139556ZM284.728889 437.162667L335.843556 462.023111C369.180444 398.762667 435.512889 355.58399999999995 512 355.58399999999995 592.924444 355.58399999999995 662.414222 403.939556 693.560889 473.258667L744.675556 448.369778C704.256 360.13511100000005 615.395556 298.695111 512 298.695111 413.013333 298.695111 327.338667 354.958222 284.728889 437.162667Z"  horiz-adv-x="1024" />

    
    <glyph glyph-name="wujiaoxing" unicode="&#58928;" d="M1004.125091 513.466182c-4.282182 13.102545-17.943273 36.002909-61.579636 42.356364l-173.661091 25.227636c-42.682182 6.213818-94.929455 44.148364-114.059636 82.874182L577.163636 821.294545c-19.525818 39.563636-45.521455 45.474909-59.298909 45.474909S478.091636 860.8581819999999 458.565818 821.294545l-77.684364-157.370182c-19.106909-38.702545-71.330909-76.660364-114.036364-82.874182l-173.661091-25.227636c-43.659636-6.330182-57.320727-29.253818-61.579636-42.356364C27.368727 500.363636 24.925091 473.809455 56.529455 443.019636l125.672727-122.484364c30.906182-30.138182 50.850909-91.531636 43.543273-134.074182l-29.649455-172.962909c-5.748364-33.466182 3.514182-52.922182 12.311273-63.371636 17.873455-21.178182 49.896727-24.087273 83.642182-6.376727l155.298909 81.664c36.258909 19.013818 104.773818 19.037091 141.032727 0l155.345455-81.664c14.987636-7.866182 29.277091-11.869091 42.519273-11.869091 16.546909 0 31.138909 6.469818 41.076364 18.245818 8.797091 10.426182 18.059636 29.905455 12.334545 63.348364l-29.649455 172.986182c-7.284364 42.519273 12.637091 103.912727 43.543273 134.050909l125.672727 122.484364C1010.804364 473.809455 1008.360727 500.363636 1004.125091 513.466182z"  horiz-adv-x="1024" />

    
    <glyph glyph-name="weixin" unicode="&#58943;" d="M693.515077 548.7543450000001c11.749602 0 23.382547-0.859577 34.914184-2.148943C697.061856 692.692594 540.865421 801.23366 362.587062 801.23366c-199.316511 0-362.588085-135.851061-362.588085-308.365136 0-99.576903 54.321186-181.348278 145.092539-244.769726l-36.266995-109.070114 126.752846 63.556525c45.353954-8.977465 81.748862-18.201547 127.010719-18.201547 11.379165 0 22.661116 0.561795 33.849946 1.434675-7.087419 24.242124-11.189853 49.63649-11.189853 75.972299C385.247154 420.201503 521.281387 548.7543450000001 693.515077 548.7543450000001L693.515077 548.7543450000001zM498.558873 647.059278c27.300786 0 45.384653-17.963117 45.384653-45.246507 0-27.174919-18.083867-45.382607-45.384653-45.382607-27.181059 0-54.448076 18.207687-54.448076 45.382607C444.11182 629.104347 471.378837 647.059278 498.558873 647.059278L498.558873 647.059278zM244.794285 556.431188c-27.174919 0-54.601572 18.207687-54.601572 45.387723 0 27.285436 27.427676 45.24139 54.601572 45.24139 27.175943 0 45.261856-17.955954 45.261856-45.24139C290.058189 574.638875 271.970228 556.431188 244.794285 556.431188L244.794285 556.431188zM1024.444115 266.155035c0 144.961556-145.05877 263.117606-307.98242 263.117606-172.519192 0-308.393789-118.15605-308.393789-263.117606 0-145.213289 135.874597-263.123746 308.393789-263.123746 36.107359 0 72.529897 9.104355 108.790752 18.195408l99.453083-54.460356-27.267017 90.610694C970.219119 111.981676 1024.444115 184.384683 1024.444115 266.155035L1024.444115 266.155035zM616.471376 311.52024500000005c-18.055215 0-36.266995 17.962094-36.266995 36.285414 0 18.061354 18.213827 36.255739 36.266995 36.255739 27.427676 0 45.387723-18.193361 45.387723-36.255739C661.860123 329.482339 643.899052 311.52024500000005 616.471376 311.52024500000005L616.471376 311.52024500000005zM815.913754 311.52024500000005c-17.928325 0-36.014238 17.962094-36.014238 36.285414 0 18.061354 18.08796 36.255739 36.014238 36.255739 27.175943 0 45.384653-18.193361 45.384653-36.255739C861.297384 329.482339 843.088674 311.52024500000005 815.913754 311.52024500000005L815.913754 311.52024500000005z"  horiz-adv-x="1025" />

    
    <glyph glyph-name="bianji" unicode="&#58985;" d="M815.530015-63.469288000000006L195.138352-63.469288000000006c-32.114418 0-65.541739 14.130835-90.841961 39.431058-25.299199 25.300222-40.307008 57.850569-40.307008 89.964988L63.989383 710.780555c0 33.147958 15.633049 63.797002 43.11496 85.248569 24.100908 18.813484 55.6873 29.753651 88.035032 29.753651l336.698438 0c16.888645 0 30.579459-13.81054 30.579459-30.699186s-13.690814-30.699186-30.579459-30.699186L195.138352 764.384403c-33.180703 0-69.750597-21.060665-69.750597-53.603849l0-644.85482c0-33.530674 36.220946-67.997674 69.750597-67.997674l620.391662 0c32.54216 0 51.754734 34.81697 51.754734 67.997674L867.284749 398.546298c0 16.888645 13.81054 30.579459 30.699186 30.579459s30.699186-13.690814 30.699186-30.579459l0-332.620563c0-32.347732-10.015098-63.056128-28.827559-87.158059C878.403994-48.71423600000003 848.678996-63.469288000000006 815.530015-63.469288000000006zM488.650199 345.78667700000005c-9.912767 0-19.826558 3.78214-27.389814 11.346419-15.126512 15.126512-15.126512 39.650045 0 54.776557L870.335225 820.983469c15.126512 15.126512 39.652092 15.126512 54.778604 0s15.126512-39.650045 0-54.776557L516.03899 357.133096C508.475733 349.56881599999997 498.561943 345.78667700000005 488.650199 345.78667700000005z"  horiz-adv-x="1024" />

    
    <glyph glyph-name="shouye" unicode="&#59068;" d="M1008.26271971 386.06313131L534.74741475 822.42228793c-12.17969038 11.19003989-30.97490546 11.06778909-43.030016-0.12225081L15.60455054 379.13906858999997c-12.79793152-11.93169579-13.47788003-31.963392-1.60672768-44.76015844 6.24411421-6.67723207 14.71436117-10.07697351 23.18460701-10.07697351 7.72859107 0 15.45601707 2.78150144 21.57671538 8.46908189l112.33584355 104.5455451L171.09499107-31.09912916999997c0-17.43531805 14.15782741-31.65485397 31.65485398-31.65485398l207.17466169 0c8.40853845 0 16.50737493 3.33803406 22.44178716 9.397025 5.93557618 5.93557618 9.21190286 13.97270528 9.21190287 22.38124373l-0.86623574 255.61399296 150.29535516 0-3.27632668-255.24374755c-0.12225081-8.53195435 3.15291079-16.69249821 9.15019435-22.75148914 5.93557618-5.93557618 14.03441266-9.39702499 22.50349454-9.397025l211.19380821 0c17.49586147 0 31.65485397 14.21953593 31.65485398 31.65485398L862.23334059 434.47219086l103.12394183-95.02510535c12.79676643-11.74657251 32.89017117-10.9420453 44.76015843 1.85588622C1021.92688583 354.16261063 1021.12235861 374.1931429 1008.26271971 386.06313131zM798.92363378 490.73325625l0-490.17753145L651.47265024 0.5557248000000072l3.27632669 255.30429099c0.12225081 8.47024697-3.15291079 16.63079083-9.15019435 22.68978176-5.93557618 5.99611961-14.03441266 9.39702499-22.50349455 9.39702499l-214.16043178 0c-8.40853845 0-16.50737493-3.33803406-22.44178716-9.33648156-5.93557618-5.93557618-9.21190286-14.03441266-9.21190287-22.44178717l0.86507179-255.61399296L234.40353394 0.5545608500000299 234.40353394 493.39134179c0 0.86507179-0.43311787 1.54501917-0.49482525 2.41009096l279.5088202 260.15823644L799.29504313 492.52627001C799.23333575 491.90803001 798.92363378 491.3503323 798.92363378 490.73325625z"  horiz-adv-x="1024" />

    
    <glyph glyph-name="weibo" unicode="&#58970;" d="M726.64 425.22c-34.78 6.72-17.845 25.088-17.845 25.088s34.023 55.406-6.805 95.73c-50.5 49.878-173.429-6.276-173.429-6.276-46.877-14.333-34.478 6.572-27.824 42.116 0 41.965-14.518 112.899-139.563 71.084-124.894-42.263-232.1-189.958-232.1-189.958-74.54-98.118-64.713-173.983-64.713-173.983 18.596-167.562 198.984-213.557 339.303-224.462C551.24 53.210000000000036 750.53 114.74099999999999 810.857 241.38099999999997c60.486 126.791-49.29 176.97-84.217 183.838zM414.55 111.75099999999998c-146.518-6.718-265.061 65.71-265.061 162.184 0 96.624 118.543 173.984 265.061 180.706 146.669 6.718 265.364-53.018 265.364-149.342 0-96.327-118.695-186.976-265.364-193.548zM385.367 391.17c-147.425-17.023-130.338-153.224-130.338-153.224s-1.51-43.16 39.467-65.114c86.183-46.145 175.093-18.216 219.849 38.98 44.907 57.047 18.6 196.235-128.978 179.358zM348.17 199.86199999999997c-27.516-3.135-49.743 12.547-49.743 35.248 0 22.55 19.654 46.296 47.173 49.13 31.604 2.99 52.167-14.934 52.167-37.782 0.151-22.55-22.228-43.46-49.597-46.596z m86.946 73.03c-9.377-6.87-20.866-5.975-25.707 2.388-5.141 8.067-3.175 20.91 6.2 27.628 10.886 8.067 22.228 5.674 27.217-2.388 4.841-8.067 1.36-20.458-7.71-27.628zM798.459 484.21c11.946 0 21.927 8.66 23.74 20.008 0.153 0.897 0.3 1.645 0.3 2.542 17.997 159.646-132.605 132.165-132.605 132.165-13.306 0-24.04-10.6-24.04-24.042 0-13.144 10.734-23.748 24.04-23.748 108.112 23.598 84.375-83.18 84.375-83.18-0.152-13.144 10.733-23.745 24.19-23.745z m-17.54 278.671c-52.013 12.096-105.693 1.64-120.662-1.195-1.21-0.15-2.266-1.198-3.323-1.344-0.457-0.151-0.908-0.597-0.908-0.597-14.818-4.185-25.555-17.624-25.555-33.603 0-18.968 15.573-34.646 35.078-34.646 0 0 18.9 2.538 31.756 7.466 12.699 5.076 120.657 3.732 174.185-84.976 29.186-64.813 12.856-108.123 10.737-115.141 0 0-6.954-16.877-6.954-33.452 0-19.115 15.574-31.215 35.078-31.215 16.18 0 29.786 2.243 33.718 29.273h0.152c57.761 189.215-70.16 278.072-163.302 299.43z m0 0"  horiz-adv-x="1024" />

    
    <glyph glyph-name="discover" unicode="&#58957;" d="M474.417 163.338c0-52.775 42.597-95.724 94.951-95.724 52.345 0 94.951 42.949 94.951 95.724 0 52.775-42.606 95.733-94.951 95.733-52.353 0-94.951-42.957-94.951-95.733zM601.010 163.338c0-17.577-14.211-31.905-31.644-31.905-17.442 0-31.653 14.329-31.653 31.905 0 17.586 14.211 31.914 31.653 31.914 17.433 0 31.644-14.329 31.644-31.914zM711.782 322.89c43.613 0 79.119 35.793 79.119 79.767 0 44.001-35.505 79.767-79.119 79.767s-79.119-35.767-79.119-79.767c0-43.974 35.505-79.776 79.11-79.776zM711.782 418.605c8.729 0 15.822-7.147 15.822-15.948 0-8.811-7.092-15.957-15.822-15.957s-15.822 7.147-15.822 15.957c0 8.802 7.083 15.948 15.822 15.948zM442.772 610.062c0 35.244-28.35 63.81-63.297 63.81-34.956 0-63.297-28.567-63.297-63.81s28.342-63.819 63.297-63.819c34.956 0 63.297 28.575 63.297 63.81zM134.361 144.069c-39.312-60.498-63.558-112.86-63.522-148.535 0-22.905 9.209-36.819 16.928-44.442 37.665-37.269 108.81-3.195 159.003 25.587 15.165 8.711 20.475 28.206 11.835 43.524-5.506 9.681-15.751 16.101-27.497 16.101-5.765 0-11.169-1.548-15.818-4.25-48.72-27.999-72.3-32.914-81.443-33.517 1.503 41.257 94.293 201.852 326.583 432.261 223.875 222.083 394.272 323.73 437.382 324.45-0.953-11.34-8.676-44.325-57.888-118.35-1.297-1.89-2.377-3.961-3.195-6.128l-2.277-5.903c-0.252-0.639-0.289-1.35-0.514-2.017-8.703-10.206-10.691-25.020-3.348-37.133 34.706-56.662 55.26-125.252 55.26-198.643 0-0.132 0-0.263 0-0.395 0-211.119-170.37-382.875-379.782-382.875-58.644 0-114.822 13.077-167.014 38.925-4.064 2.046-8.857 3.243-13.929 3.243-12.442 0-23.203-7.207-28.333-17.671-2.127-4.286-3.323-9.118-3.323-14.228 0-12.469 7.123-23.275 17.522-28.569 61.138-30.233 126.722-45.516 195.077-45.516 244.323 0 443.070 200.385 443.070 446.715-0.029 79.281-20.593 153.753-56.661 218.393 1.401-1.799 1.851-1.324 2.003-0.746 67.356 102.042 83.142 164.933 49.789 197.929-10.89 10.755-25.354 15.543-42.597 15.543-38.898 0-91.845-24.857-148.436-60.723-73.197 49.806-158.111 76.32-247.167 76.32-244.332 0-443.078-200.385-443.078-446.715 0-86.886 24.813-170.262 71.37-242.631zM506.060 769.605c0.129 0 0.283 0 0.437 0 69.785 0 135.106-19.1 191.024-52.357-128.604-91.041-257.324-216.986-281.46-240.981-88.173-87.462-176.598-186.507-241.956-275.175-30.090 53.43-47.817 117.295-47.817 185.302 0 0.107 0 0.215 0 0.322 0 211.122 170.37 382.887 379.782 382.887z"  horiz-adv-x="1024" />

    
    <glyph glyph-name="saoma" unicode="&#58999;" d="M841.143-128H694.857v73.143h146.286c60.599 0 109.714 49.115 109.714 109.714V201.14300000000003H1024v-146.286C1024-46.11699999999996 942.117-128 841.143-128z m146.286 475.429H36.57C16.384 347.429 0 363.813 0 384c0 20.187 16.384 36.571 36.571 36.571H987.43c20.187 0 36.571-16.384 36.571-36.571 0-20.187-16.384-36.571-36.571-36.571z m-36.572 365.714c0 60.599-49.115 109.714-109.714 109.714H694.857V896h146.286C942.117 896 1024 814.117 1024 713.143v-146.286h-73.143V713.143z m-877.714 0v-146.286H0V713.143C0 814.117 81.883 896 182.857 896h146.286v-73.143H182.857c-60.599 0-109.714-49.115-109.714-109.714z m0-658.286c0-60.599 49.115-109.714 109.714-109.714h146.286V-128H182.857C81.883-128 0-46.11699999999996 0 54.85699999999997V201.14300000000003h73.143v-146.286z"  horiz-adv-x="1024" />

    
    <glyph glyph-name="pan_icon" unicode="&#59000;" d="M999.04982 697.425652L825.43283 871.032402a85.318594 85.318594 0 0 1-120.615424 0L33.747549 199.95230500000002c-0.317436-0.317436-0.419835-0.74751-0.716791-1.085426a28.24156 28.24156 0 0 1-5.242813-7.89494c-0.081919-0.184318-0.225277-0.348156-0.307197-0.542713a28.31324 28.31324 0 0 1-1.945575-8.007578L0.119817-96.99367500000005a28.446358 28.446358 0 0 1 28.323479-31.006325c0.860149 0 1.710058 0 2.570207 0.112639l279.425563 25.405116a28.364439 28.364439 0 0 1 8.017818 1.945575c0.194558 0.081919 0.368635 0.235517 0.563193 0.317436a28.221081 28.221081 0 0 1 7.87446 5.232574c0.327676 0.296956 0.75775 0.399355 1.085426 0.716791l533.39481 533.394809 0.081919 0.0512s0 0.061439 0.051199 0.081919l137.541929 137.541929a85.390273 85.390273 0 0 1 0 120.625664z m-411.745158-24.30945l213.828958-213.828958-493.264761-493.264761L94.039901 179.85144100000002zM59.838737-68.17868199999998l16.824105 185.013965 168.189859-168.189859z m899.009355 685.180398L841.345588 499.499212 627.50639 713.3179299999999 745.019134 830.830674a28.405398 28.405398 0 0 0 40.211968 0l173.61699-173.59651a28.497557 28.497557 0 0 0 0-40.232448zM333.273976 176.83068000000003a28.333719 28.333719 0 0 1 20.100864 8.325014l254.040926 254.030686a28.426902 28.426902 0 1 1-40.201728 40.201728L313.173112 225.35742200000004a28.425878 28.425878 0 0 1 20.100864-48.526742z"  horiz-adv-x="1024" />

    
    <glyph glyph-name="rencai" unicode="&#58893;" d="M433.326512-122.88064599999996c1.663374 15.674103 2.750965 29.428927 4.606267 42.927848 3.198796 23.543142 7.037352 46.894356 10.492053 70.373522 1.663374 11.771571 2.750965 23.607118 4.158435 35.378689l7.22928 54.37954c1.40747 10.492052 2.814941 21.112057 3.966508 31.668085 1.599398 15.802054 2.750965 31.668085 4.478315 47.470139 0.895663 8.444823 2.686989 16.825669 3.518676 25.270492 1.791326 17.401453-5.373978 33.075555-10.044221 49.261465-1.535422 5.757834-3.77458 11.515667-4.542291 17.337477-0.191928 1.855302 3.4547 6.013737 5.310002 6.013737 33.907242 0.383856 67.750509 0.255904 101.593775 0.255904 4.862171 0 6.653497-1.151567 4.862171-6.589521-3.838556-11.451691-6.781448-23.031334-9.980245-34.547001-1.279519-4.606267-2.878917-9.212534-3.646628-13.946753-2.686989-16.121934-0.383856-31.987965 2.942893-47.981947 2.431085-11.323739 3.198796-22.903383 4.286387-34.419049 1.535422-16.761693 2.431085-33.587363 4.478315-50.285081 3.134821-24.438805 7.037352-48.749658 10.428076-73.124487 1.599398-10.875908 2.942893-21.751816 3.966508-32.627723 1.663374-16.441814 2.878917-32.947603 4.478315-49.325442 0.959639-10.044221 2.303133-20.024466 3.902532-29.940735 0.255904-1.919278 2.814941-3.4547 5.949761-6.973376 4.734219 18.105188 8.508799 33.715315 12.859162 49.19749 4.350363 15.86603 9.340486 31.540133 13.882777 47.342187 3.134821 11.00386 5.757834 22.199647 8.700726 33.267483 3.390724 12.027475 6.973376 23.990973 10.236149 36.082424 3.070845 11.00386 5.629882 22.135671 8.764702 33.139531 3.198796 11.835547 6.717473 23.607118 10.044221 35.442665 2.942893 10.875908 5.82181 22.00772 8.892654 32.947604 3.390724 12.41133 7.037352 24.694709 10.428076 37.170014 3.006869 11.323739 5.565906 22.775431 8.636751 34.035195 3.198796 11.835547 6.9094 23.543142 10.236148 35.250737 3.006869 10.747956 5.629882 21.559888 8.572775 32.307844 1.279519 4.926147 1.40747 11.515667 4.606267 14.202656 3.838556 3.198796 11.451691 5.246026 15.86603 3.710604 20.472297-7.293256 40.304835-16.18591 60.521229-24.054949 20.856153-8.124943 41.968209-15.674103 62.888338-23.607118 16.633742-6.333617 33.267483-12.73121 49.773273-19.320731 21.303984-8.508799 41.64833-18.553019 60.265325-32.05194 16.761693-12.219402 29.940735-27.253746 37.425919-46.062669 3.390724-8.316871 3.262772-17.91326 4.222411-27.061818 1.663374-16.697717 2.559037-33.523387 4.286387-50.28508 2.111206-19.704586 4.734219-39.345196 7.037352-59.049783l0.255904-2.686989c1.471446-19.96049 2.878917-39.729052 4.478315-59.56159 1.087591-13.754825 2.175182-27.509649 4.030484-41.072546 2.878917-21.943744-20.856153-44.78315-44.335319-44.591223-128.719569 1.151567-257.375163 0.831687-386.222684 0.831687-180.732 0-361.527975-0.127952-542.387926-0.575783-16.057958 0-29.940735 3.4547-38.897365 16.249886-10.747956 15.482175-12.155427 33.267483-7.869039 51.308695 0.447832 1.791326 1.40747 3.518676 1.40747 5.246026 1.599398 19.576634 2.686989 39.153269 4.606267 58.665927 1.72735 16.633742 4.478315 33.203507 6.653496 49.773273l0.31988 2.750965c1.471446 19.512658 1.215543 39.409172 4.862171 58.537975 3.518676 18.616995 0.511807 38.385557 13.243017 55.723034 12.795186 17.081573 27.893505 31.092302 45.614837 42.288089 26.997842 17.145549 57.706288 26.486035 87.519071 37.809774 23.479166 8.95663 46.574476 18.808923 69.989667 28.149409 19.64061 7.805063 39.473148 15.546151 59.369662 22.775431 9.212534 3.4547 17.59338-2.878917 19.704586-12.283379 2.814941-12.155427 6.973376-24.118925 10.236149-36.274351 3.006869-11.00386 5.565906-22.135671 8.572774-33.203508 3.262772-12.091451 7.037352-24.054949 10.364101-36.210375 2.878917-10.68398 5.565906-21.495912 8.572774-32.243869 4.670243-17.017597 9.596389-33.907242 14.266632-50.988815 3.006869-10.68398 5.629882-21.431936 8.444823-32.115916 3.4547-12.475306 7.165304-24.758685 10.556028-37.170015 3.006869-11.067836 5.50193-22.199647 8.572775-33.267483 3.326748-12.091451 6.973376-24.054949 10.236149-36.1464 3.070845-11.067836 5.82181-22.135671 8.700726-33.267483 3.966508-15.354223 7.805063-30.772422 12.09145-46.062669 0.447832-1.919278 3.390724-3.006869 6.461569-5.565906zM272.938858 637.537247c3.582652 19.512658 7.741087 43.69556 12.603258 67.814484 5.629882 28.59724 18.553019 54.37954 34.355074 78.818345A239.909734 239.909734 0 0 0 412.022528 868.234447c17.273501 8.95663 35.442665 16.249886 55.019299 19.192779 14.522536 2.111206 28.981096 5.82181 43.503632 5.949761 15.098319 0.127952 30.388566-2.367109 45.294957-5.373978 13.946753-2.814941 27.957481-6.717473 41.072547-12.091451a229.865513 229.865513 0 0 0 92.445217-68.774123c18.361092-22.519527 32.819652-46.894356 43.311704-73.316415 6.077713-15.162295 9.084582-31.604109 12.475307-47.662067 2.942893-14.522536 6.397593-29.428927 6.269641-44.143391a471.246693 471.246693 0 0 0-5.885786-60.841109c-1.599398-11.899523-5.054098-23.479166-7.805063-35.186761-5.18205-22.391575-15.098319-42.863872-25.718324-63.144242-18.105188-34.547002-42.607969-63.847977-73.124487-88.606662a205.170804 205.170804 0 0 0-66.662918-36.594231c-21.815792-7.037352-43.951463-11.899523-66.79087-10.428076a203.187551 203.187551 0 0 0-101.849679 34.802905c-27.125794 18.361092-50.860864 40.368811-68.454244 67.750509a518.652857 518.652857 0 0 0-33.587363 58.985806c-8.124943 17.401453-13.498921 36.210376-18.872899 54.69942-2.814941 9.27651-3.262772 19.192779-4.478315 28.789168-1.663374 13.434945-3.134821 26.741938-5.246026 45.294958z"  horiz-adv-x="1024" />

    
    <glyph glyph-name="No_data" unicode="&#59300;" d="M248.668822 209.47067h19.983372c5.439261-0.118245 9.696074-4.493303 9.696074-9.932564 0-5.439261-4.256813-9.932564-9.696074-9.932563h-19.983372v-19.983372c-0.118245-5.321016-4.493303-9.696074-9.932563-9.696074-2.601386 0-5.084527 0.945958-6.976444 2.71963-1.891917 1.773672-2.95612 4.256813-2.95612 6.858199v19.983372h-19.983372c-5.439261 0.118245-9.696074 4.493303-9.696074 9.932563 0 5.439261 4.256813 9.932564 9.696074 9.932564h19.983372v19.983372c0.118245 5.439261 4.493303 9.696074 9.932564 9.696074 5.439261 0 9.932564-4.256813 9.932563-9.696074v-19.865127z m1304.12194 78.987529v19.983371c0 2.601386-1.064203 5.084527-2.95612 6.858199s-4.375058 2.837875-6.976443 2.719631c-5.321016 0-9.814319-4.256813-9.932564-9.696074v-19.983372h-19.983372c-2.601386 0-5.084527-1.064203-6.858198-2.95612s-2.837875-4.375058-2.719631-6.976444c0-5.321016 4.375058-9.932564 9.696074-9.932563h19.983372v-19.983372c0-5.439261 4.375058-9.696074 9.932563-9.696074 5.439261 0 9.814319 4.256813 9.932564 9.696074v19.983372h19.983372c5.439261 0 9.696074 4.375058 9.696074 9.932563 0 5.321016-4.256813 9.814319-9.696074 9.932564h-20.101617z m-717.745958-326.000924H337.588915c-5.202771 0-10.287298 2.128406-13.952887 5.793995-3.665589 3.665589-5.793995 8.750115-5.793996 13.952887 0 10.878522 8.986605 19.746882 19.746883 19.746882h89.629561c-6.976443 11.942725-10.523788 25.540878-10.523788 39.37552V614.577367c0 20.92933 8.395381 41.030947 23.175982 55.929792 14.7806 14.7806 35.000462 23.057737 55.929792 23.057737h59.240647v19.865127c0 20.92933 8.395381 41.030947 23.175981 55.929792a79.41321 79.41321 0 0 0 55.929792 23.057737h474.043418c20.92933 0 41.149192-8.277136 55.929792-23.057737 14.898845-14.7806 23.175982-34.882217 23.175982-55.929792v-573.250808c0-14.307621-3.783834-27.787529-10.523788-39.37552h109.258199c10.878522 0 19.746882-8.750115 19.746882-19.746882 0-10.878522-8.750115-19.746882-19.746882-19.746882H1048.949654v-19.865127c0-14.307621-3.783834-27.787529-10.523788-39.37552h10.642032c10.878522 0 19.746882-8.750115 19.746883-19.746882 0-10.878522-8.986605-19.746882-19.746883-19.746882h-103.937182c8.986605-15.135335 7.094688-35.000462-6.030485-48.125635-7.449423-7.449423-17.500231-11.587991-27.905774-11.587991-10.523788 0-20.574596 4.138568-27.905773 11.587991l-48.24388 48.00739z m72.247575 39.493764h62.787991c21.757044 0 39.37552 17.618476 39.375519 39.612009V615.523326c0 21.402309-17.027252 38.547806-38.193071 38.547806H494.263279c-21.047575 0-38.193072-17.263741-38.193071-38.547806v-573.960278c0-21.875289 17.736721-39.612009 39.375519-39.612009h299.987067l-10.169053 10.169053c-10.050808 9.932564-13.952887 24.594919-10.287298 38.193072l-18.682679 18.682679c-58.058199-43.277598-139.765358-34.409238-187.181524 20.456351-47.416166 54.747344-44.578291 136.809238 6.503464 188.245727 51.318245 51.43649 133.616628 54.510855 188.482217 6.976444 54.865589-47.534411 63.733949-129.47806 20.101617-187.536259l18.682679-18.682679c13.598152 3.665589 28.260508-0.23649 38.193072-10.287298l66.21709-66.21709z m141.657275 98.852656h59.477136c21.757044 0.118245 39.37552 17.736721 39.375519 39.493765V713.311778c0 21.875289-17.618476 39.493764-39.375519 39.493765H633.792148c-21.757044-0.118245-39.257275-17.736721-39.37552-39.493765v-19.746882h375.309007c20.92933 0 41.149192-8.277136 55.929792-23.057737C1040.554273 655.726559 1048.831409 635.624942 1048.831409 614.577367v-513.773672z m-696.461894 726.14134H381.930716c8.277136 0 15.01709-6.621709 15.01709-14.780601S390.207852 797.383834 381.930716 797.383834h-29.442956v-29.442956c0-8.277136-6.621709-15.01709-14.780601-15.01709-3.902079 0-7.685912 1.655427-10.523787 4.493302-2.837875 2.837875-4.375058 6.621709-4.256813 10.523788V797.265589h-29.442956c-4.020323 0-7.804157 1.537182-10.642033 4.256813-2.837875 2.837875-4.375058 6.621709-4.375057 10.523787 0 8.158891 6.739954 14.7806 15.01709 14.780601H322.808314v29.561201c0 8.277136 6.621709 15.01709 14.780601 15.01709S352.369515 864.665127 352.369515 856.387991v-29.442956zM120.254965-17.795843c0 10.878522 8.986605 19.746882 19.746883 19.746882h118.717782c10.878522 0 19.746882-8.750115 19.746883-19.746882 0-10.878522-8.986605-19.746882-19.746883-19.746882H140.001848c-5.202771 0-10.287298 2.128406-13.952887 5.793995-3.783834 3.665589-5.793995 8.750115-5.793996 13.952887z m623.150116 127.704388c38.547806 38.547806 38.547806 101.099307 0 139.765358-38.547806 38.547806-101.099307 38.547806-139.765358 0-38.547806-38.547806-38.547806-101.099307 0-139.765358 38.666051-38.547806 101.217552-38.547806 139.765358 0zM535.175982 574.965358c0 10.878522 8.86836 19.746882 19.746882 19.746882h217.333949c10.878522 0 19.746882-8.86836 19.746882-19.746882s-8.86836-19.746882-19.746882-19.746882H554.922864c-5.202771 0-10.287298 2.010162-13.952887 5.793995-3.665589 3.665589-5.793995 8.750115-5.793995 13.952887z m0-98.734411c0 10.878522 8.750115 19.746882 19.628637 19.746882h316.423095c10.878522 0 19.628637-8.750115 19.628637-19.746882 0-10.878522-8.750115-19.746882-19.628637-19.746882H554.804619c-5.202771 0-10.287298 2.128406-13.952887 5.793995-3.665589 3.665589-5.675751 8.750115-5.67575 13.952887z m0-98.852656c0 10.878522 8.86836 19.746882 19.746882 19.746882h138.34642c10.878522 0 19.746882-8.750115 19.746882-19.746882 0-10.878522-8.86836-19.746882-19.746882-19.746882h-138.34642c-5.202771 0-10.287298 2.010162-13.952887 5.793995-3.665589 3.665589-5.793995 8.750115-5.793995 13.952887zM159.74873 495.977829c-21.16582 0-40.794457 11.351501-51.318245 29.679446-10.642032 18.327945-10.642032 40.912702 0 59.240646s30.152425 29.679446 51.318245 29.679446c32.753811 0 59.240647-26.486836 59.240646-59.240646 0.118245-32.872055-26.486836-59.358891-59.240646-59.358892z m0 29.679446c10.642032 0 20.338106 5.675751 25.659122 14.7806 5.321016 9.223095 5.321016 20.456351 0 29.679446-5.321016 9.223095-15.135335 14.7806-25.659122 14.7806-16.317783 0-29.679446-13.243418-29.679446-29.679445 0.118245-16.317783 13.361663-29.561201 29.679446-29.561201zM1384.883141 614.577367c-21.16582 0-40.794457 11.351501-51.318245 29.679446-10.642032 18.327945-10.642032 40.912702 0 59.240647s30.152425 29.679446 51.318245 29.679445c32.753811 0 59.240647-26.486836 59.240647-59.240646 0-32.872055-26.486836-59.358891-59.240647-59.358892z m0 29.561201c10.642032 0 20.338106 5.675751 25.659122 14.780601 5.321016 9.223095 5.321016 20.456351 0 29.679445-5.321016 9.223095-15.135335 14.7806-25.659122 14.780601-16.317783 0-29.679446-13.243418-29.679446-29.679446 0-16.317783 13.361663-29.561201 29.679446-29.561201z m0 0"  horiz-adv-x="1697" />

    
    <glyph glyph-name="houtui" unicode="&#58959;" d="M691.8656 723.456a32 32 0 0 1-45.2608 45.2096l-358.4-358.4a37.12 37.12 0 0 1 0-52.5312l358.4-358.4a32 32 0 0 1 45.2608 45.2608L352.4096 384l339.456 339.456z"  horiz-adv-x="1024" />

    
    <glyph glyph-name="shoucang" unicode="&#58982;" d="M510.7 1.3999999999999773c-37.2 0-74.3 14.4-102.6 43.2l-0.2 0.2-269.6 277.9c-24.9 25.5-44 55.5-56.8 88.9-12.3 32.3-18.2 66.3-17.4 101.1 0.8 34.9 8.2 68.8 22.1 100.6 14.4 33 35.1 62.3 61.5 87 48.6 45.9 112.5 69.3 180 66.1 66.2-3.2 128.6-31.5 175.7-79.9l9-9.2 8.3 9.3c97.9 100.4 254 106.6 355.3 14.1l0.3-0.3c26.4-24.7 47.2-54 61.6-87.1 13.9-31.8 21.3-65.7 22.1-100.7 0.8-34.8-5.1-68.8-17.4-101.1-12.8-33.4-31.9-63.4-56.8-88.9l-272.4-278c-28.3-28.7-65.5-43.2-102.7-43.2zM458 95.5c29.1-29.6 76.4-29.5 105.5 0.1l272.3 277.9c35.7 36.6 54.8 85.5 53.7 137.5-1.2 52.3-22.7 100.7-60.6 136.2-73.1 66.6-186 61.8-257.5-10.9l-30.5-34.2-0.9-0.8c-15.2-14.8-38.7-14.6-53.5 0.5l-0.1 0.1-33 33.8c-34.7 35.6-80.5 56.4-129 58.8-48.4 2.3-94.2-14.4-128.8-47.1l-0.1-0.1c-38-35.5-59.6-83.9-60.8-136.2-1.2-52 17.9-100.9 53.7-137.7L458 95.5zM339.7 608c-64.1-1.4-98.6-29.4-116.3-52.6-10.2-13.5-16-26.8-19.3-37-4.1-10.5-7.4-22.3-9.8-35.7-3.5-19.6 9.5-38.3 29-41.8 2.2-0.4 4.3-0.6 6.4-0.6 17.1 0 32.2 12.2 35.4 29.6 1.5 8.4 3.6 16 6.2 22.7l0.9 2.1c1.1 4 3.9 11.7 10.2 19.1 8.4 9.9 20.7 16.6 36.6 19.8 6.8 1.4 14.2 2.2 22.3 2.4 17.7 0.4 32.1 13.4 34.8 30.3 0.3 2.1 0.5 4.2 0.4 6.4-0.4 19.9-16.9 35.7-36.8 35.3z"  horiz-adv-x="1024" />

    
    <glyph glyph-name="qiche" unicode="&#60525;" d="M912.832 428.896h-22.272l-6.624 22.464h60.928a32 32 0 1 1 0 64h-79.808l-35.584 120.544C815.168 674.72 771.52 704 728 704H302.592c-43.52 0-87.136-29.28-102.112-70.112l-34.944-118.528H96a32 32 0 0 1 0-64h50.624l-6.624-22.464H128c-35.296 0-64-28.704-64-64v-282.944h51.104v-34.816a32 32 0 1 1 64 0v34.816h690.528v-34.816a32 32 0 1 1 64 0v34.816h43.232v282.944a64.128 64.128 0 0 1-64.032 64zM128 145.98400000000004v104.96h73.792c26.464 0 50.528 16.672 59.872 41.408l24.064 63.712c1.088 2.912 1.216 5.888 1.44 8.832h450.528c0.224-2.944 0.352-5.92 1.44-8.832l24.064-63.648a64.256 64.256 0 0 1 59.872-41.472h89.76v-104.96H128z m784.832 168.96l-89.76 0.032-18.848 49.952h108.608v-49.984zM218.528 469.056a30.944 30.944 0 0 1 2.816 9.568L261.184 613.76c4.48 12.16 23.52 26.24 41.408 26.24H728c17.888 0 36.928-14.08 40.736-24.192l55.104-186.88H206.72l11.808 40.128z m2.144-104.16l-18.88-49.984H128v49.984h92.672zM614.752 269.76h-188.64a32 32 0 1 1 0-64h188.64a32 32 0 1 1 0 64z"  horiz-adv-x="1024" />

    
    <glyph glyph-name="cedao-fenlei" unicode="&#58930;" d="M128 800h307.2c19.2 0 32-12.8 32-32v-307.2c0-19.2-12.8-32-32-32H128c-19.2 0-32 12.8-32 32V768c0 19.2 12.8 32 32 32z m448 0h307.2c19.2 0 32-12.8 32-32v-307.2c0-19.2-12.8-32-32-32H576c-19.2 0-32 12.8-32 32V768c0 19.2 12.8 32 32 32zM128 358.4h307.2c19.2 0 32-12.8 32-32v-307.2c0-19.2-12.8-32-32-32H128c-19.2 0-32 12.8-32 32V326.4c0 19.2 12.8 32 32 32zM620.8 64h217.6V281.6H620.8V64zM576 358.4h307.2c19.2 0 32-12.8 32-32v-307.2c0-19.2-12.8-32-32-32H576c-19.2 0-32 12.8-32 32V326.4c0 19.2 12.8 32 32 32z"  horiz-adv-x="1024" />

    
    <glyph glyph-name="xin" unicode="&#58994;" d="M690.2 740.4c-69.3 0-134.55-31.05-178.2-81.45-43.65 50.4-108.9 81.45-178.2 81.45C210.95 740.4 116 647.25 116 526.65c0-147.6 134.55-265.95 338.4-448.65l57.6-50.4 57.6 50.4c203.85 182.7 338.4 301.05 338.4 448.65 0 120.6-94.95 213.75-217.8 213.75z"  horiz-adv-x="1024" />

    
    <glyph glyph-name="xiangyou-copy" unicode="&#58883;" d="M371.3983661 195.63499445000002l80.88312031-80.88312033L721.5296123 384l-269.24812589 269.24812588-80.88312031-80.88312033L559.76336999 384zM512 11.172977779999997a372.82702222 372.82702222 0 1 1 0 745.65404444 372.82702222 372.82702222 0 0 1 0-745.65404444z m0-82.85044979C260.34176-71.67747200999997 56.32252799 132.34176000000002 56.32252799 384S260.34176 839.67747201 512 839.67747201s455.67747201-204.01923201 455.67747201-455.67747201-204.01923201-455.67747201-455.67747201-455.67747201z"  horiz-adv-x="1024" />

    
    <glyph glyph-name="list" unicode="&#58960;" d="M128 640h64V704H128zM320 640h576V704H320zM128 352h64v64H128zM320 352h576v64H320zM128 64h64v64H128zM320 64h576v64H320z"  horiz-adv-x="1024" />

    
    <glyph glyph-name="lingdang" unicode="&#58932;" d="M240.8 81.7c-54.4 0-95.6 0-113.1 0.2-15.7 0.1-29.5 10.7-33.6 25.9-4.1 15.2 2.5 31.3 16.1 39.3 55.8 32.7 85.5 110.8 100.6 170.5 16.4 64.6 19.3 121.6 19.6 127.8 0 75 29.3 145.5 82.3 198.5 53.1 53.1 123.6 82.3 198.7 82.3 75 0 145.6-29.2 198.7-82.3 53-53 82.2-123.5 82.3-198.4 0.4-6.8 3.9-64.5 20.6-129 15.4-59.3 45.4-136.9 100.9-169.5 13.6-8 20.2-24.2 16-39.5-4.2-15.2-18-25.7-33.7-25.7h-0.2c-41 0.3-215.1 0.1-383.4 0-97.8 0-197.3-0.1-271.8-0.1z m-26.2 70c76.3 0 188.3 0.1 297.8 0.2 109.1 0.1 220.6 0.2 296.8 0.2-6.8 9.6-13.3 19.8-19.4 30.8-18.3 32.9-33.4 72.4-45 117.4-18.4 71.4-22 133.5-22.4 142-0.1 0.8-0.1 1.6-0.1 2.4v0.8c-0.1 116.2-94.7 210.8-211 210.8-116.2 0-210.8-94.5-211-210.7v-0.7c0-0.8 0-1.5-0.1-2.3-0.4-8.5-3.6-70.6-21.7-142.1-11.4-45-26.4-84.5-44.5-117.5-6-11.2-12.6-21.6-19.4-31.3zM512-45.8c-89.9 0-163 73.1-163 163 0 19.3 15.7 35 35 35s35-15.7 35-35c0-51.3 41.7-93 93-93s93 41.7 93 93c0 19.3 15.7 35 35 35s35-15.7 35-35c0-89.9-73.1-163-163-163zM575.8 680c-19.3 0-35 15.7-35 35 0 15.9-12.9 28.8-28.8 28.8s-28.8-12.9-28.8-28.8c0-19.3-15.7-35-35-35s-35 15.7-35 35c0 54.5 44.3 98.8 98.8 98.8s98.8-44.3 98.8-98.8c0-19.4-15.7-35-35-35z"  horiz-adv-x="1024" />

    
    <glyph glyph-name="ditu" unicode="&#58899;" d="M524.665263-105.633684l-285.642105 285.642105c-75.452632 75.452632-118.568421 177.852632-118.568421 285.642105s43.115789 210.189474 118.568421 285.642106c75.452632 75.452632 177.852632 118.568421 285.642105 118.568421s210.189474-43.115789 285.642105-118.568421c156.294737-156.294737 156.294737-414.989474 0-571.284211l-285.642105-285.642105z m0 921.6c-94.315789 0-180.547368-37.726316-247.915789-102.4s-102.4-153.6-102.4-247.91579c0-94.315789 37.726316-180.547368 102.4-247.915789l247.915789-247.91579 247.91579 247.91579c137.431579 137.431579 137.431579 358.4 0 495.831579-67.368421 64.673684-153.6 102.4-247.91579 102.4zM524.665263 303.966316c-88.926316 0-161.684211 72.757895-161.68421 161.68421s72.757895 161.684211 161.68421 161.684211 161.684211-72.757895 161.684211-161.684211-72.757895-161.684211-161.684211-161.68421z m0 269.473684c-59.284211 0-107.789474-48.505263-107.789474-107.789474s48.505263-107.789474 107.789474-107.789473 107.789474 48.505263 107.789474 107.789473-48.505263 107.789474-107.789474 107.789474z"  horiz-adv-x="1024" />

    
    <glyph glyph-name="gouwu" unicode="&#58900;" d="M1093.393067-128h-1092.266667l102.4 750.933333h887.466667l102.4-750.933333z m-1013.76 68.266667h935.253333l-85.333333 614.4h-768l-81.92-614.4zM820.3264 554.666667h-546.133333V622.933333c0 150.186667 122.88 273.066667 273.066666 273.066667s273.066667-122.88 273.066667-273.066667v-68.266666z m-477.866667 68.266666h409.6c0 112.64-92.16 204.8-204.8 204.8s-204.8-92.16-204.8-204.8zM369.7664 387.413333m-64.853333 0a64.853333 64.853333 0 1 1 129.706666 0 64.853333 64.853333 0 1 1-129.706666 0ZM745.233067 387.413333m-64.853334 0a64.853333 64.853333 0 1 1 129.706667 0 64.853333 64.853333 0 1 1-129.706667 0Z"  horiz-adv-x="1093" />

    
    <glyph glyph-name="gouwuche" unicode="&#58901;" d="M895.168 128.224h-640l-192 544h841.6c70.4 0 128-57.6 128-128 0-16-3.2-28.8-6.4-41.6l-131.2-374.4z m-595.2 64h550.4l115.2 329.6c3.2 6.4 3.2 12.8 3.2 22.4 0 35.2-28.8 64-64 64h-748.8l144-416zM335.168-127.776c-60.8 0-112 51.2-112 112s51.2 112 112 112 112-51.2 112-112-48-112-112-112z m0 160c-25.6 0-48-22.4-48-48s22.4-48 48-48 48 22.4 48 48-19.2 48-48 48zM815.168-127.776c-60.8 0-112 51.2-112 112s51.2 112 112 112 112-51.2 112-112-48-112-112-112z m0 160c-25.6 0-48-22.4-48-48s22.4-48 48-48 48 22.4 48 48-19.2 48-48 48zM69.568 845.024l76.8-211.2-60.8-22.4-76.8 211.2c-6.4 16 3.2 35.2 19.2 41.6 16 6.4 35.2-3.2 41.6-19.2z"  horiz-adv-x="1056" />

    
    <glyph glyph-name="lajixiang" unicode="&#58904;" d="M768-128H256c-70.4 0-128 57.6-128 128V704h768v-704c0-70.4-57.6-128-128-128zM192 640v-640c0-35.2 28.8-64 64-64h512c35.2 0 64 28.8 64 64V640H192zM416 464c9.6 0 16-6.4 16-16v-256c0-9.6-6.4-16-16-16s-16 6.4-16 16v256c0 9.6 6.4 16 16 16zM416 160c-19.2 0-32 12.8-32 32v256c0 19.2 12.8 32 32 32s32-12.8 32-32v-256c0-19.2-12.8-32-32-32z m0 304v-16 16zM608 464c9.6 0 16-6.4 16-16v-256c0-9.6-6.4-16-16-16s-16 6.4-16 16v256c0 9.6 6.4 16 16 16zM608 160c-19.2 0-32 12.8-32 32v256c0 19.2 12.8 32 32 32s32-12.8 32-32v-256c0-19.2-12.8-32-32-32z m0 304v-16 16zM704 640H320V800c0 54.4 41.6 96 96 96h192c54.4 0 96-41.6 96-96v-160zM384 704h256V800c0 19.2-12.8 32-32 32h-192c-19.2 0-32-12.8-32-32v-96zM864 704h128c19.2 0 32-12.8 32-32s-12.8-32-32-32h-128c-19.2 0-32 12.8-32 32s12.8 32 32 32zM32 704h128c19.2 0 32-12.8 32-32s-12.8-32-32-32H32c-19.2 0-32 12.8-32 32s12.8 32 32 32z"  horiz-adv-x="1024" />

    
    <glyph glyph-name="mima" unicode="&#58905;" d="M829.109677-94.967742h-660.645161c-92.490323 0-165.16129 72.670968-165.16129 165.16129V466.580645c0 92.490323 72.670968 165.16129 165.16129 165.16129h660.645161c92.490323 0 165.16129-72.670968 165.161291-165.16129v-396.387097c0-92.490323-72.670968-165.16129-165.161291-165.16129z m-660.645161 660.645161c-56.154839 0-99.096774-42.941935-99.096774-99.096774v-396.387097c0-56.154839 42.941935-99.096774 99.096774-99.096774h660.645161c56.154839 0 99.096774 42.941935 99.096775 99.096774V466.580645c0 56.154839-42.941935 99.096774-99.096775 99.096774h-660.645161zM498.787097 185.806452c-9.909677 0-16.516129 6.606452-16.516129 16.516129v165.16129c0 9.909677 6.606452 16.516129 16.516129 16.516129s16.516129-6.606452 16.516129-16.516129v-165.16129c0-9.909677-6.606452-16.516129-16.516129-16.516129zM498.787097 169.290323c-19.819355 0-33.032258 13.212903-33.032258 33.032258v165.16129c0 19.819355 13.212903 33.032258 33.032258 33.032258s33.032258-13.212903 33.032258-33.032258v-165.16129c0-19.819355-13.212903-33.032258-33.032258-33.032258z m0 33.032258v-16.516129 16.516129zM763.045161 565.677419h-528.516129V631.741935c0 145.341935 118.916129 264.258065 264.258065 264.258065s264.258065-118.916129 264.258064-264.258065v-66.064516z m-462.451613 66.064516h396.387097c0 109.006452-89.187097 198.193548-198.193548 198.193549s-198.193548-89.187097-198.193549-198.193549z"  horiz-adv-x="1024" />

    
    <glyph glyph-name="naozhong" unicode="&#58906;" d="M512-128C230.4-128 0 102.4 0 384S230.4 896 512 896s512-230.4 512-512-230.4-512-512-512z m0 960C265.6 832 64 630.4 64 384s201.6-448 448-448 448 201.6 448 448S758.4 832 512 832zM512 592c9.6 0 16-6.4 16-16v-256c0-9.6-6.4-16-16-16s-16 6.4-16 16v256c0 9.6 6.4 16 16 16zM512 288c-19.2 0-32 12.8-32 32v256c0 19.2 12.8 32 32 32s32-12.8 32-32v-256c0-19.2-12.8-32-32-32z m0 304v-16 16zM646.4 233.6c-3.2-6.4-12.8-9.6-22.4-6.4l-108.8 67.2c-6.4 3.2-9.6 12.8-6.4 22.4 3.2 6.4 12.8 9.6 22.4 6.4L640 256c9.6-3.2 12.8-16 6.4-22.4zM633.6 211.2c-6.4 0-12.8 0-16 3.2l-108.8 67.2c-16 9.6-19.2 28.8-9.6 44.8 9.6 16 28.8 19.2 44.8 9.6l108.8-67.2c16-9.6 19.2-28.8 9.6-44.8-6.4-9.6-19.2-12.8-28.8-12.8z m-108.8 96l124.8-73.6-12.8 9.6-112 64z"  horiz-adv-x="1024" />

    
    <glyph glyph-name="quanbu" unicode="&#58907;" d="M483.2 412.8H243.2C108.8 412.8 3.2 521.6 3.2 652.8S112 892.8 243.2 892.8s240-108.8 240-240v-240zM240 832C144 832 64 752 64 656S144 480 240 480H416V656c3.2 96-76.8 176-176 176zM784 412.8H544V652.8C544 787.2 652.8 892.8 784 892.8S1024 784 1024 652.8s-108.8-240-240-240z m-179.2 64h176c96 0 176 80 176 176S880 832 784 832 608 752 608 656v-179.2zM240-128C105.6-128 0-19.2 0 112S108.8 352 240 352H480v-240c3.2-131.2-105.6-240-240-240z m0 419.2c-96 0-176-80-176-176s80-176 176-176 176 80 176 176v176H240zM784-128c-134.4 0-240 108.8-240 240V352h240c134.4 0 240-108.8 240-240S915.2-128 784-128z m-179.2 419.2v-176c0-96 80-176 176-176s176 80 176 176-80 176-176 176h-176z"  horiz-adv-x="1024" />

    
    <glyph glyph-name="shanchu" unicode="&#58908;" d="M51.231743 910.581824m32.912607-32.912607l921.552983-921.552983q32.912607-32.912607 0-65.825213l0 0q-32.912607-32.912607-65.825213 0l-921.552983 921.552983q-32.912607 32.912607 0 65.825213l0 0q32.912607 32.912607 65.825213 0ZM1038.60994 844.756611m-32.912607-32.912607l-921.552983-921.552983q-32.912607-32.912607-65.825213 0l0 0q-32.912607 32.912607 0 65.825213l921.552983 921.552983q32.912607 32.912607 65.825213 0l0 0q32.912607-32.912607 0-65.825213Z"  horiz-adv-x="1024" />

    
    <glyph glyph-name="sousuo" unicode="&#58910;" d="M465.454545 27.151515C226.521212 27.151515 31.030303 222.642424 31.030303 461.575758S226.521212 896 465.454545 896s434.424242-195.490909 434.424243-434.424242-195.490909-434.424242-434.424243-434.424243z m0 806.787879C260.654545 833.939394 93.090909 666.375758 93.090909 461.575758s167.563636-372.363636 372.363636-372.363637 372.363636 167.563636 372.363637 372.363637S670.254545 833.939394 465.454545 833.939394zM766.448485 89.212121c6.206061 6.206061 15.515152 6.206061 21.721212 0l183.078788-167.563636c6.206061-6.206061 6.206061-15.515152 0-21.721212-6.206061-6.206061-15.515152-6.206061-21.721212 0l-183.078788 167.563636c-6.206061 6.206061-6.206061 15.515152 0 21.721212zM961.939394-118.690909c-6.206061 0-15.515152 3.10303-21.721212 9.309091L757.139394 58.181818c-6.206061 6.206061-9.309091 12.412121-9.309091 21.721212 0 9.309091 3.10303 15.515152 9.309091 21.721212 6.206061 6.206061 12.412121 9.309091 21.721212 9.309091 9.309091 0 15.515152-3.10303 21.721212-9.309091l183.078788-167.563636c6.206061-6.206061 9.309091-12.412121 9.309091-21.721212 0-9.309091-3.10303-15.515152-9.309091-21.721212-6.206061-3.10303-12.412121-9.309091-21.721212-9.309091z m-186.181818 198.593939l183.078788-167.563636-192.387879 176.872727 9.309091-9.309091z"  horiz-adv-x="1024" />

    
    <glyph glyph-name="tianjia" unicode="&#58911;" d="M34.133333 418.133333h955.733334c20.48 0 34.133333-13.653333 34.133333-34.133333s-13.653333-34.133333-34.133333-34.133333H34.133333c-20.48 0-34.133333 13.653333-34.133333 34.133333s13.653333 34.133333 34.133333 34.133333zM546.133333 861.866667v-955.733334c0-20.48-13.653333-34.133333-34.133333-34.133333s-34.133333 13.653333-34.133333 34.133333V861.866667c0 20.48 13.653333 34.133333 34.133333 34.133333s34.133333-13.653333 34.133333-34.133333z"  horiz-adv-x="1024" />

    
    <glyph glyph-name="tingche" unicode="&#58912;" d="M512-128C230.4-128 0 102.4 0 384S230.4 896 512 896s512-230.4 512-512-230.4-512-512-512z m0 960C265.6 832 64 630.4 64 384s201.6-448 448-448 448 201.6 448 448S758.4 832 512 832zM416 608v-512c0-19.2-12.8-32-32-32s-32 12.8-32 32V608c0 19.2 12.8 32 32 32s32-12.8 32-32zM544 256h-192V640h192c105.6 0 192-86.4 192-192s-86.4-192-192-192z m-128 64h128c70.4 0 128 57.6 128 128s-57.6 128-128 128h-128v-256z"  horiz-adv-x="1024" />

    
    <glyph glyph-name="tupian" unicode="&#58913;" d="M853.333333-128H170.666667c-95.573333 0-170.666667 75.093333-170.666667 170.666667V725.333333c0 95.573333 75.093333 170.666667 170.666667 170.666667h682.666666c95.573333 0 170.666667-75.093333 170.666667-170.666667v-682.666666c0-95.573333-75.093333-170.666667-170.666667-170.666667zM170.666667 827.733333C112.64 827.733333 68.266667 783.36 68.266667 725.333333v-682.666666c0-58.026667 44.373333-102.4 102.4-102.4h682.666666c58.026667 0 102.4 44.373333 102.4 102.4V725.333333c0 58.026667-44.373333 102.4-102.4 102.4H170.666667zM320.853333 544.426667m-64.853333 0a64.853333 64.853333 0 1 1 129.706667 0 64.853333 64.853333 0 1 1-129.706667 0ZM221.866667 39.253333l-61.44 27.306667 13.653333 30.72c71.68 167.253333 187.733333 252.586667 341.333333 262.826667 129.706667 6.826667 225.28 44.373333 283.306667 112.64l23.893333 27.306666 51.2-44.373333-23.893333-27.306667c-71.68-81.92-184.32-129.706667-331.093333-136.533333-126.293333-6.826667-218.453333-78.506667-279.893334-221.866667l-17.066666-30.72z"  horiz-adv-x="1024" />

    
    <glyph glyph-name="wode1" unicode="&#58914;" d="M512 334.451613C356.748387 334.451613 231.225806 459.974194 231.225806 615.225806S356.748387 896 512 896 792.774194 770.477419 792.774194 615.225806 667.251613 334.451613 512 334.451613z m0 495.483871C393.083871 829.935484 297.290323 734.141935 297.290323 615.225806s95.793548-214.709677 214.709677-214.709677S726.709677 496.309677 726.709677 615.225806 630.916129 829.935484 512 829.935484zM1057.032258-128H0l3.303226 36.335484C19.819355 182.503226 251.045161 400.516129 528.516129 400.516129s508.696774-218.012903 528.516129-492.180645V-128zM69.367742-61.935484h914.993548c-33.032258 224.619355-227.922581 396.387097-459.148387 396.387097C297.290323 334.451613 102.4 162.683871 69.367742-61.935484z"  horiz-adv-x="1057" />

    
    <glyph glyph-name="xingxing" unicode="&#58916;" d="M258.90909125-87.27272718999996c-5.81818219 0-11.63636344 0-17.45454563 2.90909063-14.545455 5.81818219-26.18181844 14.545455-34.90909125 29.09090906-5.81818219 11.63636344-8.72727281 23.27272688-5.81818125 37.81818188L247.27272687 253.09090875000004 52.36363625 445.09090875c-23.27272688 23.27272688-23.27272688 58.18181812 0 81.45454594 8.72727281 8.72727281 20.36363625 14.545455 31.99999969 17.45454562l270.54545531 40.7272725 122.1818175 244.36363594c5.81818219 14.545455 17.45454563 23.27272688 34.90909125 29.09090906 14.545455 5.81818219 29.09090906 2.90909063 43.63636406-2.90909062 11.63636344-5.81818219 20.36363625-14.545455 26.1818175-26.18181844l122.18181844-244.36363594 270.54545437-40.7272725c31.99999969-5.81818219 52.36363594-34.90909125 49.45454532-66.90909093-2.90909063-11.63636344-8.72727281-23.27272688-17.45454469-32.00000063L811.63636344 253.09090875000004l46.54545468-270.54545438c2.90909063-14.545455 0-31.99999969-8.72727281-43.63636312s-23.27272688-20.36363625-37.81818187-23.27272781c-11.63636344-2.90909063-26.18181844 0-37.81818188 5.81818219L526.545455 46.54545469000004l-241.45454625-127.99999969c-8.72727281-5.81818219-17.45454563-5.81818219-26.1818175-5.81818219zM526.545455 797.0909090600001l-133.81818187-273.454545L90.18181813 482.90909062l218.18181843-212.36363625-52.36363687-299.63636343 270.54545531 142.54545469 270.54545438-142.54545469-52.36363688 299.63636344 218.18181844 212.36363624-299.63636344 43.63636407L526.545455 797.0909090600001z"  horiz-adv-x="1058" />

    
    <glyph glyph-name="xiaoxi" unicode="&#58925;" d="M775.757576 27.151515000000018c0 9.309091 6.206061 15.515152 15.515151 15.515152h155.151515c9.309091 0 15.515152-6.206061 15.515152-15.515152s-6.206061-15.515152-15.515152-15.515151h-155.151515c-9.309091 0-15.515152 6.206061-15.515151 15.515151zM946.424242-3.878787999999986h-155.151515c-18.618182 0-31.030303 12.412121-31.030303 31.030303s12.412121 31.030303 31.030303 31.030303h155.151515c18.618182 0 31.030303-12.412121 31.030303-31.030303s-12.412121-31.030303-31.030303-31.030303z m-170.666666 31.030303h15.515151-15.515151zM62.060606 27.151515000000018c0 9.309091 6.206061 15.515152 15.515152 15.515152h155.151515c9.309091 0 15.515152-6.206061 15.515151-15.515152s-6.206061-15.515152-15.515151-15.515151H77.575758c-9.309091 0-15.515152 6.206061-15.515152 15.515151zM232.727273-3.878787999999986H77.575758c-18.618182 0-31.030303 12.412121-31.030303 31.030303s12.412121 31.030303 31.030303 31.030303h155.151515c18.618182 0 31.030303-12.412121 31.030303-31.030303s-12.412121-31.030303-31.030303-31.030303zM62.060606 27.151515000000018H77.575758 62.060606zM403.393939-96.969697c0 9.309091 6.206061 15.515152 15.515152 15.515152h186.181818c9.309091 0 15.515152-6.206061 15.515152-15.515152s-6.206061-15.515152-15.515152-15.515151h-186.181818c-9.309091 0-15.515152 6.206061-15.515152 15.515151zM605.090909-128h-186.181818c-18.618182 0-31.030303 12.412121-31.030303 31.030303s12.412121 31.030303 31.030303 31.030303h186.181818c18.618182 0 31.030303-12.412121 31.030303-31.030303s-12.412121-31.030303-31.030303-31.030303z m-201.69697 31.030303h15.515152-15.515152zM512 880.484848c9.309091 0 15.515152-6.206061 15.515152-15.515151v-62.060606c0-9.309091-6.206061-15.515152-15.515152-15.515152s-15.515152 6.206061-15.515152 15.515152V864.969697c0 9.309091 6.206061 15.515152 15.515152 15.515151zM512 771.878788c-18.618182 0-31.030303 12.412121-31.030303 31.030303V864.969697c0 18.618182 12.412121 31.030303 31.030303 31.030303s31.030303-12.412121 31.030303-31.030303v-62.060606c0-18.618182-12.412121-31.030303-31.030303-31.030303z m0 108.60606V864.969697 880.484848zM884.363636-3.878787999999986H139.636364V430.545455C139.636364 635.345455 307.2 802.909091 512 802.909091s372.363636-167.563636 372.363636-372.363636v-434.424243zM201.69697 58.18181800000002h620.60606V430.545455c0 170.666667-139.636364 310.30303-310.30303 310.30303S201.69697 601.212121 201.69697 430.545455v-372.363637z"  horiz-adv-x="1024" />

    
    <glyph glyph-name="xiangxi" unicode="&#59065;" d="M512 810.667c-234.667 0-426.667-192-426.667-426.667s192-426.667 426.667-426.667 426.667 192 426.667 426.667S746.667 810.667 512 810.667z m81.067-328.534L512 196.267c-4.267-17.067-8.533-25.6-8.533-34.134 0-4.266 0-4.266 4.266-8.533s4.267-4.267 8.534-4.267 8.533 0 12.8 4.267c12.8 8.533 25.6 29.867 42.666 55.467l12.8-8.534c-42.666-72.533-85.333-106.666-128-106.666-17.066 0-29.866 4.266-42.666 12.8-8.534 8.533-17.067 21.333-17.067 38.4 0 8.533 4.267 21.333 8.533 38.4l55.467 192c4.267 17.066 8.533 34.133 8.533 42.666 0 4.267-4.266 12.8-8.533 17.067-4.267 4.267-12.8 8.533-21.333 8.533h-12.8l4.266 17.067 136.534 21.333h25.6z m17.066 85.334c-12.8-12.8-25.6-17.067-42.666-17.067s-29.867 4.267-42.667 17.067-17.067 25.6-17.067 42.666S512 640 524.8 652.8s25.6 17.067 42.667 17.067 29.866-4.267 42.666-17.067c12.8-12.8 17.067-25.6 17.067-42.667s-8.533-29.866-17.067-42.666z"  horiz-adv-x="1024" />

    


  </font>
</defs>
</svg>
